<svg width="40" height="40" viewBox="0 0 40 40" fill="none" xmlns="http://www.w3.org/2000/svg">
<circle cx="20" cy="20" r="18.75" stroke="black" stroke-width="2.5"/>
<g clip-path="url(#clip0_53_80)">
<path d="M371 -123H-149V202H371V-123Z" stroke="black" stroke-width="0.008" stroke-miterlimit="2" stroke-linejoin="round"/>
<path fill-rule="evenodd" clip-rule="evenodd" d="M11.0178 19.389C10.5546 19.8448 10.293 20.4668 10.2902 21.1164C10.2877 21.766 10.5449 22.39 11.0044 22.8494C12.2345 24.0796 13.877 25.722 15.0998 26.9452C16.0451 27.8902 17.5751 27.8995 18.5318 26.966C20.9327 24.6227 25.1272 20.5285 26.3862 19.2996C26.621 19.0705 26.7539 18.7561 26.7539 18.4278C26.7539 16.7102 26.7539 11.275 26.7539 11.275H19.7582C19.4381 11.275 19.131 11.4005 18.9031 11.6252C17.6579 12.8512 13.4402 17.0035 11.0178 19.389ZM25.1289 12.9V17.7526C25.1289 18.0821 24.9952 18.3973 24.7592 18.6269C23.5124 19.8379 19.4401 23.7936 17.6559 25.5266C17.1842 25.9845 16.4323 25.9792 15.9671 25.514C14.9974 24.5447 13.4094 22.9563 12.4291 21.976C12.2008 21.7477 12.0732 21.4377 12.0748 21.1147C12.0761 20.7918 12.2065 20.483 12.4372 20.2567C14.2471 18.4802 18.3461 14.4563 19.5762 13.2489C19.8041 13.0251 20.1109 12.9 20.4302 12.9C21.731 12.9 25.1289 12.9 25.1289 12.9ZM21.9166 13.9002C21.2053 13.9062 20.5151 14.3133 20.1836 14.9373C19.896 15.478 19.8789 16.1508 20.1356 16.7069C20.4753 17.4431 21.2939 17.9342 22.119 17.8481C22.9485 17.762 23.7029 17.1026 23.8675 16.2653C23.9877 15.6547 23.8016 14.9913 23.3747 14.5384C23.0095 14.1512 22.4891 13.9095 21.9548 13.9006C21.9422 13.9002 21.9296 13.9002 21.9166 13.9002ZM21.9199 14.9235C22.3688 14.9263 22.7901 15.2684 22.8717 15.7202C22.8998 15.8762 22.8892 16.0395 22.8352 16.189C22.6755 16.6273 22.1771 16.9247 21.7123 16.813C21.2496 16.7017 20.901 16.2081 20.9802 15.7283C21.0521 15.294 21.4458 14.9308 21.9024 14.9235C21.9081 14.9235 21.9142 14.9235 21.9199 14.9235Z" fill="black" stroke="black" stroke-width="0.008" stroke-miterlimit="2" stroke-linejoin="round"/>
<path fill-rule="evenodd" clip-rule="evenodd" d="M26.7538 12.3369V13.9623H28.1196V18.815C28.1196 19.1444 27.9864 19.4597 27.7504 19.6892C26.5036 20.9002 22.4313 24.8555 20.6471 26.5886C20.1754 27.0468 19.423 27.0411 18.9583 26.5764L18.9445 26.5626L18.5317 26.966C18.2624 27.2284 17.948 27.4165 17.614 27.5302L18.091 28.0072C19.0363 28.9525 20.5662 28.9619 21.5225 28.0279C23.9235 25.6847 28.118 21.5909 29.3774 20.362C29.6122 20.1324 29.7446 19.818 29.7446 19.4897C29.7446 17.7725 29.7446 12.3369 29.7446 12.3369H26.7538Z" fill="black" stroke="black" stroke-width="0.008" stroke-miterlimit="2" stroke-linejoin="round"/>
</g>
<defs>
<clipPath id="clip0_53_80">
<rect width="26" height="26" fill="white" transform="translate(7 7)"/>
</clipPath>
</defs>
</svg>
