<svg width="40" height="40" fill="none" xmlns="http://www.w3.org/2000/svg"><circle cx="20" cy="20" r="18.75" stroke="#000" stroke-width="2.5"/><g clip-path="url(#a)" stroke="#000" stroke-width=".008" stroke-miterlimit="2" stroke-linejoin="round"><path d="M371-123h-520v325h520v-325Z"/><path fill-rule="evenodd" clip-rule="evenodd" d="M11.018 19.389a2.438 2.438 0 0 0-.014 3.46l4.096 4.096a2.442 2.442 0 0 0 3.432.021l7.854-7.666a1.22 1.22 0 0 0 .368-.872v-7.153h-6.996c-.32 0-.627.125-.855.35l-7.885 7.764Zm14.11-6.489v4.853c0 .33-.133.644-.369.874l-7.103 6.9a1.203 1.203 0 0 1-1.689-.013l-3.538-3.538a1.21 1.21 0 0 1 .008-1.72l7.14-7.007c.227-.224.534-.349.853-.349h4.699Zm-3.211 1a2.01 2.01 0 0 0-1.733 1.037 2.02 2.02 0 0 0-.048 1.77c.34.736 1.158 1.227 1.983 1.141.83-.086 1.584-.745 1.748-1.583a1.995 1.995 0 0 0-.492-1.727 2.027 2.027 0 0 0-1.42-.637h-.038Zm.003 1.024c.449.002.87.344.952.796a.91.91 0 0 1-.037.469c-.16.438-.658.736-1.123.624-.462-.111-.811-.605-.732-1.085a.977.977 0 0 1 .922-.804h.018Z" fill="#000"/><path fill-rule="evenodd" clip-rule="evenodd" d="M26.754 12.337v1.625h1.366v4.853c0 .33-.134.645-.37.874l-7.103 6.9a1.203 1.203 0 0 1-1.689-.013l-.013-.013-.413.403c-.27.262-.584.45-.918.564l.477.477a2.441 2.441 0 0 0 3.431.02c2.402-2.342 6.596-6.436 7.855-7.665a1.22 1.22 0 0 0 .368-.872v-7.153h-2.991Z" fill="#000"/></g><defs><clipPath id="a"><path fill="#fff" transform="translate(7 7)" d="M0 0h26v26H0z"/></clipPath></defs></svg>